<svg width="32" height="33" viewBox="0 0 32 33" fill="none" xmlns="http://www.w3.org/2000/svg">
<path d="M15.9994 16.9203V1.58803C15.9994 1.58803 9.26957 1.49821 5.33234 5.92281C1.39511 10.3474 0.698494 12.5474 0.666494 16.9203C0.634494 21.2932 2.20496 24.3029 5.99942 28.5011L15.9994 16.9203Z" fill="#F08B1D"/>
<path fill-rule="evenodd" clip-rule="evenodd" d="M16.6671 2.19597V4.17449H15.3329V2.19597C11.6795 2.36391 8.22068 3.8902 5.63461 6.47553C3.04855 9.06087 1.52183 12.5188 1.35385 16.1711H3.33292V17.5037H1.35385C1.52126 21.1563 3.04775 24.6147 5.6339 27.2003C8.22006 29.786 11.6792 31.3123 15.3329 31.48V29.5015H16.6658V31.48C20.3195 31.3127 23.7789 29.7866 26.3652 27.2012C28.9516 24.6158 30.4784 21.1575 30.6462 17.5049H28.6671V16.1711H30.6462C30.4784 12.5187 28.9518 9.06062 26.3657 6.47522C23.7796 3.88983 20.3206 2.36363 16.6671 2.19597ZM31.9865 16.1711C31.8166 12.0462 30.0581 8.14675 27.0786 5.28822C24.0991 2.42968 20.1295 0.833496 16 0.833496C11.8705 0.833496 7.90086 2.42968 4.9214 5.28822C1.94193 8.14675 0.183382 12.0462 0.0135385 16.1711C0.00451282 16.3926 0 16.6149 0 16.838C0 17.0611 0.00451282 17.2834 0.0135385 17.5049C0.180753 21.5131 1.84843 25.3122 4.68593 28.1489C7.52344 30.9856 11.3236 32.6528 15.3329 32.82C15.5545 32.829 15.7768 32.8335 16 32.8335C16.2232 32.8335 16.4455 32.829 16.6671 32.82C20.6764 32.6528 24.4766 30.9856 27.3141 28.1489C30.1516 25.3122 31.8192 21.5131 31.9865 17.5049C31.9955 17.2834 32 17.0611 32 16.838C32 16.6149 31.9955 16.3926 31.9865 16.1711ZM17.3329 16.838C17.3327 17.0642 17.275 17.2867 17.1651 17.4845C17.0552 17.6823 16.8968 17.8489 16.7048 17.9686C16.5128 18.0883 16.2935 18.1572 16.0675 18.1689C15.8415 18.1806 15.6162 18.1345 15.4129 18.0352L12.2535 21.7265L11.7477 21.2921L14.9071 17.6009C14.7838 17.4243 14.7052 17.2206 14.6778 17.007C14.6504 16.7935 14.6752 16.5765 14.7499 16.3746C14.8246 16.1727 14.9471 15.9919 15.107 15.8476C15.2668 15.7033 15.4592 15.5999 15.6677 15.5461V8.84025H16.3348V15.5473C16.6206 15.6216 16.8736 15.7887 17.0543 16.0223C17.2349 16.2559 17.3329 16.5428 17.3329 16.838Z" fill="black"/>
</svg>
